# xmcd CD database file
#
# Track frame offsets:
#	150
#	19575
#	39662
#	58487
#	76900
#	99912
#	121612
#	144362
#	165637
#	188750
#	214150
#	236000
#	255487
#	274000
#	297762
#	314500
#
# Disc length: 4476 seconds
#
# Revision: 0
# Processed by: cddbd v1.5PL3 Copyright (c) Steve Scherf et al.
# Submitted via: CDex 1.50
#
DISCID=da117a10
DTITLE=オムニバス - BEAT EXPRESS "ELEGANCE"
DYEAR=1900
DGENRE=Japanese Pop
TTITLE0=ふたりのDestiny
TTITLE1=秘密にしようよ
TTITLE2=Swallow
TTITLE3=トム・ソーヤ
TTITLE4=夏の午後
TTITLE5=CIRCUIT of RAINBOW
TTITLE6=夜を泳いで
TTITLE7=君は知らない
TTITLE8=ファジィな痛み
TTITLE9=MUSE
TTITLE10=Bird and Cat
TTITLE11=誘惑について
TTITLE12=マルイ月トゥスキート
TTITLE13=光合成・アフリカ
TTITLE14=ハモニカ
TTITLE15=0の丘∞の空
EXTD=
EXTT0=
EXTT1=
EXTT2=
EXTT3=
EXTT4=
EXTT5=
EXTT6=
EXTT7=
EXTT8=
EXTT9=
EXTT10=
EXTT11=
EXTT12=
EXTT13=
EXTT14=
EXTT15=
PLAYORDER=
